<svg width="25" height="22" viewBox="0 0 25 22" fill="none" xmlns="http://www.w3.org/2000/svg">
<g id="bi:google" clip-path="url(#clip0_73_168)">
<path id="Vector" d="M23.6603 9.01602C23.7983 9.75434 23.867 10.5024 23.8659 11.2518C23.8659 14.5985 22.579 17.4283 20.3395 19.3436H20.3425C18.3841 21.0253 15.692 21.9988 12.5 21.9988C9.36157 21.9988 6.35171 20.8398 4.13253 18.7769C1.91335 16.714 0.666626 13.9162 0.666626 10.9988C0.666626 8.08139 1.91335 5.2835 4.13253 3.2206C6.35171 1.1577 9.36157 -0.00122728 12.5 -0.00122728C15.4375 -0.0332075 18.2744 0.992668 20.4165 2.86152L17.038 6.00202C15.8168 4.91986 14.1869 4.32726 12.5 4.35202C9.41294 4.35202 6.79038 6.28802 5.85554 8.89502C5.35988 10.2611 5.35988 11.7406 5.85554 13.1066H5.85998C6.79925 15.7095 9.41738 17.6455 12.5044 17.6455C14.0989 17.6455 15.4686 17.266 16.5307 16.595H16.5263C17.1429 16.2153 17.6704 15.7233 18.0769 15.1488C18.4834 14.5743 18.7605 13.9292 18.8914 13.2524H12.5V9.0174L23.6603 9.01602Z" fill="#63646F"/>
</g>
<defs>
<clipPath id="clip0_73_168">
<rect width="23.6667" height="22" fill="white" transform="translate(0.666626)"/>
</clipPath>
</defs>
</svg>
