<svg width="62" height="29" viewBox="0 0 62 29" fill="none" xmlns="http://www.w3.org/2000/svg">
<g id="Frame 4">
<rect id="Rectangle 1" y="0.706055" width="29.8134" height="28.0027" rx="14.0014" transform="rotate(-0.386173 0 0.706055)" fill="#004BE0"/>
<path id="Bookworms ICON" d="M18.3107 16.3932C16.4735 16.3453 15.4305 15.4985 15.1817 13.8527C15.0454 12.8691 15.1363 11.9342 15.4545 11.0481C15.7726 10.1418 16.263 9.16406 16.9258 8.11484C17.4392 7.32781 17.9329 6.83224 18.4069 6.62813C18.8163 6.44455 19.2376 6.43166 19.6708 6.58948C20.1041 6.74729 20.4193 7.0164 20.6163 7.39681C20.6822 7.55709 20.8234 7.66665 21.0399 7.72546C21.7761 7.9415 22.3516 8.35955 22.7664 8.97959C22.8975 9.19971 23.008 9.56061 23.0978 10.0623C23.2544 10.8448 23.1837 11.5786 22.8857 12.2637C22.6094 12.9487 22.1605 13.675 21.539 14.4427C20.9818 15.1296 20.3478 15.6562 19.6372 16.0226C19.271 16.2059 18.8289 16.3295 18.3107 16.3932ZM18.271 10.5167C17.8238 11.4841 17.5591 12.2996 17.4772 12.9632C17.4989 12.9832 17.5217 13.1538 17.5454 13.4751C17.5908 13.7962 17.7111 14.0064 17.9063 14.1055C18.123 14.2045 18.3822 14.1827 18.6838 14.04C19.5882 13.5718 20.2318 12.8643 20.6144 11.9174C20.7417 11.575 20.8375 11.3533 20.9016 11.2524C20.9655 11.1114 20.986 10.9405 20.963 10.7397C20.9399 10.5188 20.8736 10.3083 20.7642 10.1082C20.6548 9.90798 20.5351 9.77819 20.4051 9.71879C19.4945 9.28292 18.8152 9.48841 18.3671 10.3353C18.3456 10.3555 18.3242 10.3858 18.3028 10.4261C18.2815 10.4664 18.2709 10.4967 18.271 10.5167ZM9.10948 17.0881C8.11438 16.9341 7.44024 16.3058 7.08704 15.2031C6.80003 14.3009 6.82486 13.1756 7.16154 11.8272C7.54075 10.3781 8.14835 9.14843 8.98433 8.13823C9.0058 8.11799 9.04868 8.06747 9.11296 7.98667C9.19872 7.88564 9.25234 7.825 9.27381 7.80477C9.29515 7.76444 9.33796 7.70388 9.40225 7.62308C9.48814 7.54213 9.54183 7.49154 9.5633 7.47131C9.60638 7.45092 9.67094 7.41031 9.75697 7.34945C9.84286 7.26851 9.90742 7.22789 9.95064 7.2276C9.99386 7.22731 10.0694 7.20671 10.1771 7.1658C10.2848 7.1048 10.3603 7.09424 10.4038 7.13413C10.4688 7.15378 10.5661 7.16317 10.6957 7.1623C11.2365 7.23902 11.6056 7.48768 11.8029 7.90827C11.8905 8.0885 12.0319 8.22819 12.2271 8.32733C13.0507 8.68342 13.6154 9.11158 13.9213 9.61181C14.2487 10.0918 14.4153 10.7537 14.4209 11.5975C14.4689 12.3004 14.1507 13.1865 13.4664 14.256C12.8246 15.2247 12.0627 15.9933 11.1805 16.5618C10.4489 17.0289 9.75856 17.2043 9.10948 17.0881ZM10.0723 10.8432C9.60322 11.7907 9.32921 12.8172 9.25022 13.9228C9.38299 14.384 9.44951 14.6347 9.44978 14.6749C9.51637 14.9356 9.65709 14.9748 9.87197 14.7926C9.93639 14.7318 10.0224 14.671 10.1301 14.61C10.2377 14.549 10.3453 14.488 10.453 14.427C10.5605 14.3459 10.6464 14.265 10.7107 14.1842C11.4406 13.476 11.9322 12.6691 12.1854 11.7632C12.312 11.3003 12.2229 10.9091 11.9182 10.5897C11.6571 10.3303 11.3215 10.2321 10.9113 10.2951C10.501 10.3381 10.2213 10.5208 10.0723 10.8432ZM21.5609 17.6974C21.8852 17.7153 22.1997 17.8839 22.5044 18.2033C22.7004 18.423 22.7668 18.6637 22.7037 18.9253C22.6408 19.207 22.4584 19.3991 22.1566 19.5016C22.1135 19.522 22.0057 19.5629 21.8332 19.6243C21.6609 19.7058 21.5208 19.757 21.4129 19.7778C21.305 19.7986 21.1862 19.8095 21.0565 19.8104C20.0621 19.7568 17.8978 22.4737 15.1758 22.5925C13.6203 22.6632 12.1911 22.671 10.5413 20.7015C10.2873 20.5855 10.1583 20.2332 9.0672 20.4336C8.44067 20.458 8.07196 20.2595 7.96108 19.8383C7.80616 19.2969 7.98699 18.8738 8.50358 18.5689C8.78354 18.4264 9.18263 18.3233 9.70084 18.2595C12.3357 18.0207 12.3977 20.1098 13.9576 20.3253C15.1616 20.4917 16.4883 20.0728 17.0044 19.7774C18.3284 19.0196 19.6477 17.5917 21.5609 17.6974Z" fill="white"/>
</g>
</svg>
