<svg width="23" height="23" viewBox="0 0 23 23" fill="none" xmlns="http://www.w3.org/2000/svg">
<g id="BookmarkSimple">
<path id="Vector" d="M16.5312 2.875H6.46875C6.0875 2.875 5.72187 3.02645 5.45228 3.29603C5.1827 3.56562 5.03125 3.93125 5.03125 4.3125V20.125C5.03131 20.2533 5.0657 20.3792 5.13085 20.4897C5.19599 20.6002 5.28952 20.6912 5.40173 20.7534C5.51394 20.8155 5.64073 20.8465 5.76896 20.8431C5.89718 20.8398 6.02216 20.8021 6.13094 20.7341L11.5 17.3785L16.87 20.7341C16.9787 20.8019 17.1036 20.8393 17.2317 20.8426C17.3598 20.8459 17.4864 20.8148 17.5985 20.7527C17.7106 20.6906 17.804 20.5996 17.8691 20.4893C17.9342 20.3789 17.9686 20.2531 17.9688 20.125V4.3125C17.9688 3.93125 17.8173 3.56562 17.5477 3.29603C17.2781 3.02645 16.9125 2.875 16.5312 2.875ZM16.5312 18.8286L11.88 15.9221C11.7658 15.8507 11.6338 15.8129 11.4991 15.8129C11.3644 15.8129 11.2324 15.8507 11.1182 15.9221L11.88 13L6.46875 4.3125L10 15L16.5312 18.8286Z" fill="#171919"/>
</g>
</svg>
