<svg width="21" height="21" viewBox="0 0 21 21" fill="none" xmlns="http://www.w3.org/2000/svg">
<g id="Group">
<path id="Vector" d="M16.2857 8.1148C18.2331 8.1148 19.8117 6.5221 19.8117 4.5574C19.8117 2.5927 18.2331 1 16.2857 1C14.3384 1 12.7597 2.5927 12.7597 4.5574C12.7597 6.5221 14.3384 8.1148 16.2857 8.1148Z" stroke="#171919" stroke-width="1.63031" stroke-linecap="round" stroke-linejoin="round"/>
<path id="Vector_2" d="M4.53235 19.9722C6.47971 19.9722 8.05836 18.3795 8.05836 16.4148C8.05836 14.4501 6.47971 12.8574 4.53235 12.8574C2.58499 12.8574 1.00635 14.4501 1.00635 16.4148C1.00635 18.3795 2.58499 19.9722 4.53235 19.9722Z" stroke="#171919" stroke-width="1.63031" stroke-linecap="round" stroke-linejoin="round"/>
<path id="Vector_3" d="M12.7597 12.858H19.8117V18.787C19.8117 19.1015 19.6879 19.4031 19.4675 19.6255C19.247 19.8479 18.9481 19.9728 18.6364 19.9728H13.935C13.6233 19.9728 13.3244 19.8479 13.1039 19.6255C12.8835 19.4031 12.7597 19.1015 12.7597 18.787V12.858ZM1.00635 1H8.05836V6.929C8.05836 7.24349 7.93453 7.54511 7.71411 7.76749C7.49369 7.98987 7.19474 8.1148 6.88302 8.1148H2.18168C1.86996 8.1148 1.57101 7.98987 1.3506 7.76749C1.13018 7.54511 1.00635 7.24349 1.00635 6.929V1Z" stroke="#171919" stroke-width="1.63031" stroke-linecap="round" stroke-linejoin="round"/>
</g>
</svg>
