<svg width="24" height="22" viewBox="0 0 24 22" fill="none" xmlns="http://www.w3.org/2000/svg">
<g id="ic:baseline-apple">
<path id="Vector" d="M17.1465 18.59C16.1801 19.4608 15.125 19.3233 14.1093 18.9108C13.0344 18.4892 12.0483 18.4708 10.9143 18.9108C9.49428 19.4792 8.74483 19.3142 7.89678 18.59C3.08456 13.9792 3.79456 6.9575 9.25761 6.70083C10.5889 6.765 11.5158 7.37917 12.2948 7.43417C13.4584 7.21417 14.5727 6.58167 15.8152 6.66417C17.3043 6.77417 18.4284 7.32417 19.168 8.31417C16.0914 10.0283 16.8211 13.7958 19.6414 14.85C19.0793 16.225 18.3496 17.5908 17.1366 18.5992L17.1465 18.59ZM12.1962 6.64583C12.0483 4.60167 13.8332 2.915 15.8843 2.75C16.1702 5.115 13.5768 6.875 12.1962 6.64583Z" fill="#63646F"/>
</g>
</svg>
