<svg width="6593" height="1636" viewBox="0 0 6593 1636" fill="none" xmlns="http://www.w3.org/2000/svg">
<g clip-path="url(#clip0_20_24)">
<mask id="mask0_20_24" style="mask-type:alpha" maskUnits="userSpaceOnUse" x="0" y="0" width="6594" height="1636">
<path d="M665.876 718.934C645.902 739.013 608.807 766.454 554.591 801.258C564.578 809.29 579.559 819.33 599.533 831.377C619.508 842.086 636.628 852.795 650.896 863.504C665.163 872.874 676.577 884.252 685.137 897.638C743.633 983.309 759.327 1068.31 732.219 1152.64C709.392 1222.25 672.297 1280.48 620.934 1327.33C570.999 1372.84 506.796 1413.67 428.326 1449.81C328.454 1496.67 245.704 1529.46 180.074 1548.2C177.221 1548.2 170.087 1549.54 158.673 1552.22C147.259 1556.23 139.412 1558.91 135.132 1560.25C130.852 1561.59 123.005 1562.93 111.591 1564.27C101.604 1566.94 93.0434 1567.61 85.9097 1566.27C80.2028 1566.27 73.0691 1564.94 64.5087 1562.26C55.9483 1560.92 48.1013 1558.24 40.9676 1554.23C19.5666 1543.52 6.72602 1528.79 2.44583 1510.05C-3.2611 1492.65 1.0191 1475.25 15.2864 1457.85C39.5409 1428.4 68.0755 1413 100.89 1411.66C113.731 1410.33 121.578 1406.98 124.431 1401.62C128.712 1396.27 129.425 1387.57 126.572 1375.52C120.865 1360.8 120.865 1335.36 126.572 1299.22C132.278 1263.08 134.419 1237.65 132.992 1222.92C128.712 1174.73 132.278 1085.04 143.692 953.86C145.119 940.474 141.552 929.096 132.992 919.725C113.018 896.969 112.304 876.22 130.852 857.48C142.266 844.094 148.686 819.999 150.113 785.195C158.673 649.995 163.667 553.616 165.093 496.055C165.093 481.331 166.52 460.582 169.374 433.81C172.227 405.699 173.654 384.951 173.654 371.565C173.654 356.84 172.227 336.091 169.374 309.319C165.093 290.579 171.514 271.169 188.634 251.09C205.755 231.011 224.303 219.632 244.277 216.955C435.459 183.49 586.693 235.026 697.978 371.565C742.207 421.093 762.181 477.315 757.901 540.229C753.62 603.144 722.946 662.712 665.876 718.934ZM295.639 961.891C292.786 998.034 285.652 1126.54 274.238 1347.41C355.562 1319.3 424.045 1285.17 479.688 1245.01C555.305 1190.12 593.113 1127.88 593.113 1058.27C594.54 1007.4 568.145 971.262 513.929 949.844C486.822 939.135 462.567 935.119 441.166 937.797C398.364 940.474 366.263 937.797 344.862 929.765C326.314 924.41 313.474 924.41 306.34 929.765C299.206 933.781 295.639 944.49 295.639 961.891ZM312.76 590.427C312.76 601.136 312.047 615.192 310.62 632.593C310.62 648.657 309.907 662.712 308.48 674.76C308.48 686.807 307.767 700.863 306.34 716.926C304.913 732.989 302.773 747.714 299.92 761.1C321.321 753.068 341.295 744.367 359.842 734.997C379.817 725.627 403.358 712.91 430.466 696.847C459 679.445 476.834 668.736 483.968 664.72C511.076 648.657 533.904 630.586 552.451 610.506C573.852 587.75 585.979 566.332 588.833 546.253C591.686 526.174 585.266 502.079 569.572 473.968C552.451 443.18 528.197 420.424 496.809 405.699C466.847 389.636 429.752 376.25 385.524 365.541C352.709 358.848 333.448 357.509 327.741 361.525C323.461 365.541 320.607 384.951 319.18 419.755C316.327 508.103 314.187 564.994 312.76 590.427Z" fill="white"/>
<path d="M1546.76 1222.92C1425.49 1218.9 1357.01 1162.01 1341.31 1052.25C1332.75 986.656 1339.17 924.41 1360.57 865.512C1381.97 805.274 1414.79 740.352 1459.02 670.744C1493.26 618.538 1526.07 585.742 1557.46 572.356C1584.57 560.309 1612.39 559.639 1640.93 570.348C1669.46 581.057 1690.15 599.128 1702.99 624.562C1707.27 635.271 1716.54 642.633 1730.81 646.649C1779.32 661.374 1817.13 689.484 1844.24 730.981C1852.8 745.706 1859.93 769.801 1865.64 803.266C1875.62 855.472 1870.63 904.331 1850.66 949.844C1832.11 995.357 1802.15 1043.55 1760.77 1094.41C1723.68 1139.93 1681.59 1174.73 1634.51 1198.83C1610.25 1210.87 1581 1218.9 1546.76 1222.92ZM1546.76 831.377C1516.8 895.63 1498.97 949.844 1493.26 994.018C1494.69 995.357 1496.11 1006.73 1497.54 1028.15C1500.39 1049.57 1508.24 1063.63 1521.08 1070.32C1535.35 1077.01 1552.47 1075.67 1572.44 1066.3C1632.37 1035.51 1675.17 988.664 1700.85 925.749C1709.41 902.993 1715.83 888.268 1720.11 881.575C1724.39 872.205 1725.82 860.826 1724.39 847.44C1722.96 832.716 1718.68 818.66 1711.55 805.274C1704.42 791.888 1696.57 783.187 1688.01 779.171C1628.09 749.722 1583.14 763.108 1553.18 819.33C1551.75 820.668 1550.33 822.676 1548.9 825.353C1547.47 828.03 1546.76 830.038 1546.76 831.377ZM938.973 1265.09C873.343 1254.38 829.115 1212.21 806.287 1138.59C787.74 1078.35 789.88 1003.39 812.707 913.701C838.388 817.322 879.05 735.666 934.693 668.736C936.12 667.397 938.973 664.051 943.253 658.696C948.96 652.003 952.527 647.987 953.954 646.649C955.381 643.972 958.234 639.956 962.514 634.601C968.221 629.247 971.788 625.9 973.215 624.562C976.068 623.223 980.348 620.546 986.055 616.53C991.762 611.176 996.042 608.498 998.896 608.498C1001.75 608.498 1006.74 607.16 1013.88 604.483C1021.01 600.467 1026 599.798 1028.86 602.475C1033.14 603.813 1039.56 604.483 1048.12 604.483C1083.79 609.837 1108.04 626.57 1120.88 654.681C1126.59 666.728 1135.86 676.098 1148.7 682.791C1202.92 706.886 1240.01 735.666 1259.99 769.132C1281.39 801.258 1292.09 845.432 1292.09 901.654C1294.94 948.505 1273.54 1007.4 1227.89 1078.35C1185.08 1142.6 1134.44 1193.47 1075.94 1230.95C1027.43 1261.74 981.775 1273.12 938.973 1265.09ZM1005.32 849.448C973.928 912.363 955.381 980.632 949.674 1054.26C958.234 1085.04 962.514 1101.78 962.514 1104.45C966.794 1121.86 976.068 1124.53 990.336 1112.48C994.616 1108.47 1000.32 1104.45 1007.46 1100.44C1014.59 1096.42 1021.72 1092.41 1028.86 1088.39C1035.99 1083.04 1041.7 1077.68 1045.98 1072.33C1094.49 1025.48 1127.3 971.931 1144.42 911.694C1152.98 880.906 1147.28 854.803 1127.3 833.385C1110.18 815.983 1088.07 809.29 1060.96 813.306C1033.85 815.983 1015.3 828.03 1005.32 849.448ZM1760.77 1311.27C1782.17 1312.61 1802.86 1323.99 1822.83 1345.4C1835.67 1360.13 1839.95 1376.19 1835.67 1393.59C1831.39 1412.33 1819.27 1425.05 1799.29 1431.74C1796.44 1433.08 1789.31 1435.76 1777.89 1439.78C1766.48 1445.13 1757.2 1448.48 1750.07 1449.81C1742.94 1451.15 1735.09 1451.82 1726.53 1451.82C1660.9 1447.81 1516.8 1627.85 1337.03 1634.54C1234.31 1638.56 1139.94 1638.43 1031.9 1506.48C1015.18 1498.63 1006.82 1475.1 934.693 1487.97C893.318 1489.3 869.063 1475.92 861.93 1447.81C851.942 1411.66 864.07 1383.55 898.311 1363.47C916.859 1354.1 943.253 1347.41 977.495 1343.4C1151.56 1328.67 1154.72 1467.89 1257.61 1482.95C1337.03 1494.57 1424.81 1467.26 1459.02 1447.81C1546.76 1397.91 1634.51 1303.37 1760.77 1311.27Z" fill="white"/>
<path d="M2618.93 1184.77C2654.6 1235.64 2643.19 1277.13 2584.69 1309.26C2571.85 1317.29 2556.87 1319.3 2539.75 1315.28C2522.63 1309.93 2507.65 1299.89 2494.81 1285.17C2476.26 1259.73 2449.87 1224.26 2415.62 1178.75C2381.38 1131.89 2359.98 1103.11 2351.42 1092.41C2298.63 1021.46 2260.11 975.278 2235.86 953.86C2220.16 939.135 2208.04 931.773 2199.47 931.773C2192.34 931.773 2180.21 938.466 2163.09 951.852C2153.11 958.545 2144.55 966.577 2137.41 975.947C2130.28 985.317 2124.57 993.349 2120.29 1000.04C2117.44 1006.73 2115.3 1016.77 2113.87 1030.16C2112.44 1042.21 2111.73 1051.58 2111.73 1058.27C2111.73 1063.63 2111.73 1073.67 2111.73 1088.39C2111.73 1103.11 2111.73 1113.15 2111.73 1118.51C2110.3 1260.4 2108.88 1360.8 2107.45 1419.7C2106.02 1450.48 2083.91 1477.26 2041.11 1500.01C2026.84 1506.71 2011.15 1504.7 1994.03 1493.99C1978.33 1484.62 1966.92 1470.56 1959.78 1451.82C1955.5 1442.45 1951.94 1430.4 1949.08 1415.68C1947.66 1402.29 1946.94 1392.92 1946.94 1387.57C1946.94 1382.21 1946.94 1369.5 1946.94 1349.42C1948.37 1329.34 1949.08 1318.63 1949.08 1317.29C1949.08 1313.28 1948.37 1291.19 1946.94 1251.03C1946.94 1209.53 1948.37 1186.78 1951.22 1182.76C1952.65 1169.38 1942.66 1158.67 1921.26 1150.64C1901.29 1141.27 1887.73 1125.87 1880.6 1104.45C1874.89 1083.04 1878.46 1063.63 1891.3 1046.22C1925.54 996.695 1943.38 971.931 1944.8 971.931C1947.66 966.577 1949.8 961.222 1951.22 955.868C1954.08 950.513 1955.5 944.49 1955.5 937.797C1956.93 931.104 1957.64 925.08 1957.64 919.725C1957.64 914.371 1956.93 908.347 1955.5 901.654C1955.5 893.622 1955.5 887.599 1955.5 883.583C1955.5 866.181 1956.22 809.29 1957.64 712.91C1959.07 612.514 1961.92 528.182 1966.2 459.913C1973.34 358.179 1981.18 270.5 1989.74 196.876C1992.6 182.151 1996.88 143.332 2002.59 80.417C2005.44 53.6448 2021.13 30.8885 2049.67 12.1479C2075.35 -2.57682 2098.89 -3.91545 2120.29 8.13204C2141.69 18.8409 2154.53 36.2429 2158.81 60.3379C2160.24 68.3695 2160.95 76.4012 2160.95 84.4329C2160.95 92.4645 2160.24 100.496 2158.81 108.528C2158.81 116.559 2158.1 124.591 2156.67 132.623C2156.67 139.316 2155.96 147.347 2154.53 156.718C2153.11 164.749 2152.39 172.112 2152.39 178.805C2133.84 396.998 2123.14 546.922 2120.29 628.578C2120.29 633.932 2120.29 688.815 2120.29 793.227C2135.98 786.534 2151.68 773.817 2167.37 755.076C2191.63 726.965 2229.44 695.508 2280.8 660.704C2292.21 652.673 2304.34 642.633 2317.18 630.586C2330.02 618.538 2342.86 606.491 2355.7 594.443C2369.97 581.057 2382.81 570.348 2394.22 562.316C2414.2 547.592 2442.73 531.528 2479.83 514.127C2508.36 502.079 2533.33 510.111 2554.73 538.221C2566.15 554.285 2570.43 571.017 2567.57 588.419C2564.72 605.821 2556.87 620.546 2544.03 632.593C2535.47 639.287 2483.39 680.114 2387.8 755.076C2384.95 757.753 2382.81 759.092 2381.38 759.092C2378.53 763.108 2374.25 767.793 2368.54 773.148C2362.84 777.163 2357.84 781.179 2353.56 785.195C2350.71 787.872 2347.14 791.888 2342.86 797.242C2338.58 802.597 2335.73 807.282 2334.3 811.298C2331.45 819.33 2332.16 826.023 2336.44 831.377C2342.15 836.731 2349.28 842.755 2357.84 849.448C2366.4 854.803 2372.11 859.488 2374.96 863.504C2461.99 966.577 2543.32 1073.67 2618.93 1184.77Z" fill="white"/>
<path d="M3724.23 598.459C3747.06 615.861 3755.62 637.279 3749.91 662.712C3747.06 674.76 3741.35 700.863 3732.79 741.021C3725.66 779.841 3719.95 808.621 3715.67 827.361C3711.39 844.763 3704.97 869.527 3696.41 901.654C3689.27 932.442 3680.71 960.553 3670.73 985.986C3660.74 1010.08 3650.04 1034.18 3638.62 1058.27C3602.96 1127.88 3567.29 1173.39 3531.62 1194.81C3494.52 1218.9 3458.14 1229.61 3422.47 1226.94C3386.81 1222.92 3349.71 1203.51 3311.19 1168.71C3302.63 1160.68 3294.78 1152.64 3287.65 1144.61C3280.51 1136.58 3273.38 1127.21 3266.25 1116.5C3260.54 1104.45 3255.55 1095.08 3251.27 1088.39C3246.99 1080.36 3241.99 1068.98 3236.29 1054.26C3230.58 1039.53 3227.01 1029.49 3225.59 1024.14C3224.16 1018.78 3220.59 1007.4 3214.89 990.002C3209.18 971.262 3205.61 960.553 3204.18 957.876C3202.76 953.86 3201.33 947.836 3199.9 939.804C3199.9 931.773 3199.19 925.749 3197.76 921.733C3196.34 916.379 3193.48 913.701 3189.2 913.701C3177.79 913.701 3164.24 926.418 3148.54 951.852C3097.18 1036.18 3034.4 1121.86 2960.21 1208.86C2927.4 1246.35 2885.31 1271.11 2833.95 1283.16C2809.69 1288.51 2782.58 1285.17 2752.62 1273.12C2722.66 1261.07 2699.83 1243.67 2684.14 1220.91C2665.59 1192.8 2652.04 1165.36 2643.48 1138.59C2636.34 1110.48 2632.06 1068.98 2630.64 1014.1C2642.05 854.803 2681.29 711.571 2748.34 584.404C2761.18 560.309 2780.44 544.245 2806.13 536.214C2833.23 526.843 2857.49 528.851 2878.89 542.237C2900.29 555.623 2913.84 575.703 2919.55 602.475C2925.26 627.908 2920.98 649.326 2906.71 666.728C2903.86 670.744 2899.58 674.76 2893.87 678.776C2888.16 682.791 2883.17 687.477 2878.89 692.831C2874.61 696.847 2871.04 701.532 2868.19 706.886C2861.05 721.611 2853.92 738.344 2846.79 757.084C2841.08 775.825 2836.09 792.557 2831.81 807.282C2828.95 822.007 2824.67 840.078 2818.97 861.496C2814.69 881.575 2811.12 898.308 2808.27 911.694C2789.72 977.286 2787.58 1042.88 2801.85 1108.47C2807.55 1135.24 2820.39 1139.26 2840.37 1120.52C2848.93 1111.15 2866.05 1089.06 2891.73 1054.26C2998.73 905.67 3075.06 793.227 3120.72 716.926C3134.99 692.831 3154.96 672.752 3180.64 656.688C3203.47 643.302 3228.44 641.294 3255.55 650.665C3284.08 660.035 3301.92 676.768 3309.05 700.863C3314.76 720.942 3321.18 749.722 3328.31 787.203C3336.87 824.684 3342.58 850.118 3345.43 863.504C3348.28 870.197 3351.85 884.921 3356.13 907.678C3361.84 929.096 3366.12 945.159 3368.97 955.868C3371.83 965.238 3376.11 978.624 3381.81 996.026C3388.95 1012.09 3396.08 1026.14 3403.21 1038.19C3404.64 1040.87 3406.07 1044.22 3407.49 1048.23C3410.35 1052.25 3412.49 1055.59 3413.91 1058.27C3416.77 1060.95 3418.91 1063.63 3420.33 1066.3C3423.19 1068.98 3426.04 1070.99 3428.89 1072.33C3431.75 1073.67 3434.6 1074.33 3437.46 1074.33C3448.87 1073 3461 1059.61 3473.84 1034.18C3519.49 947.167 3548.74 863.504 3561.58 783.187C3564.43 773.817 3568 758.423 3572.28 737.005C3576.56 715.587 3579.42 698.855 3580.84 686.807C3586.55 653.342 3603.67 620.546 3632.2 588.419C3640.76 579.049 3654.32 575.703 3672.87 578.38C3692.84 579.718 3709.96 586.411 3724.23 598.459Z" fill="white"/>
<path d="M4148.5 654.681C4192.73 674.76 4225.55 702.201 4246.95 737.005C4269.77 770.47 4278.34 809.29 4272.63 853.464C4252.65 1014.1 4187.02 1145.95 4075.74 1249.02C4018.67 1302.57 3950.9 1319.3 3872.43 1299.22C3802.52 1281.82 3757.58 1236.31 3737.6 1162.68C3729.04 1127.88 3725.48 1100.44 3726.9 1080.36C3726.9 1005.4 3747.59 923.741 3788.97 835.393C3808.94 789.88 3830.34 751.73 3853.17 720.942C3857.45 714.249 3860.3 703.54 3861.73 688.815C3864.58 672.752 3866.72 662.712 3868.15 658.696C3875.28 639.956 3882.42 629.916 3889.55 628.578C3899.54 624.562 3914.52 618.538 3934.49 610.506C3954.47 601.136 3972.3 593.774 3988 588.419C4005.12 583.065 4021.52 580.388 4037.22 580.388C4068.61 579.049 4094.29 594.443 4114.26 626.57C4121.4 638.617 4132.81 647.987 4148.5 654.681ZM4116.4 843.424C4119.25 824.684 4109.27 805.943 4086.44 787.203C4063.61 768.462 4042.92 761.1 4024.38 765.116C4018.67 766.454 4012.96 769.801 4007.26 775.155C3937.35 875.551 3898.11 971.262 3889.55 1062.29C3892.4 1090.4 3893.83 1105.79 3893.83 1108.47C3893.83 1109.81 3893.83 1112.49 3893.83 1116.5C3895.26 1119.18 3895.97 1121.86 3895.97 1124.53C3897.4 1125.87 3898.82 1127.88 3900.25 1130.56C3901.68 1133.23 3903.1 1135.91 3904.53 1138.59C3905.96 1139.93 3907.39 1141.93 3908.81 1144.61C3911.67 1145.95 3915.23 1147.29 3919.51 1148.63C3940.91 1152.64 3960.17 1146.62 3977.29 1130.56C4052.91 1055.59 4099.28 959.883 4116.4 843.424Z" fill="white"/>
<path d="M4923.7 712.91C4953.66 751.73 4951.52 785.195 4917.28 813.306C4904.44 824.015 4884.47 828.7 4857.36 827.361C4831.68 824.684 4812.42 816.652 4799.58 803.266C4795.3 800.589 4775.32 778.502 4739.66 737.005C4728.24 723.619 4718.25 724.958 4709.69 741.021C4699.71 763.777 4679.73 800.589 4649.77 851.456C4619.81 902.323 4599.12 942.482 4587.71 971.931C4582 987.994 4573.44 1006.73 4562.03 1028.15C4550.61 1049.57 4539.91 1070.32 4529.93 1090.4C4521.36 1110.48 4514.23 1129.22 4508.52 1146.62C4499.96 1177.41 4479.28 1202.17 4446.46 1220.91C4419.35 1234.3 4391.53 1235.64 4363 1224.93C4335.89 1212.88 4318.77 1192.8 4311.64 1164.69C4307.35 1147.29 4303.79 1127.88 4300.93 1106.46C4299.51 1083.7 4298.08 1066.3 4296.65 1054.26C4296.65 1042.21 4295.94 1021.46 4294.51 992.01C4294.51 962.561 4294.51 944.49 4294.51 937.797C4294.51 916.379 4295.94 882.914 4298.79 837.401C4298.79 813.306 4308.07 790.549 4326.62 769.132C4345.16 746.375 4366.56 741.021 4390.82 753.068C4440.75 775.825 4464.3 805.274 4461.44 841.417C4461.44 842.755 4462.87 853.464 4465.72 873.543C4477.14 857.48 4487.84 840.747 4497.82 823.345C4509.24 805.943 4521.36 783.187 4534.21 755.076C4548.47 725.627 4557.75 707.556 4562.03 700.863C4576.29 672.752 4601.98 635.94 4639.07 590.427C4659.04 566.332 4684.73 553.616 4716.11 552.277C4748.93 550.938 4778.18 560.978 4803.86 582.396C4842.38 614.522 4882.33 658.027 4923.7 712.91Z" fill="white"/>
<path d="M6127.46 1232.96C6130.31 1254.38 6127.46 1273.12 6118.9 1289.18C6111.76 1303.91 6099.64 1313.95 6082.52 1319.3C6063.97 1324.65 6044.71 1322.65 6024.73 1313.28C6004.76 1303.91 5989.07 1290.52 5977.65 1273.12C5971.95 1262.41 5967.67 1251.7 5964.81 1240.99C5961.96 1230.28 5959.82 1215.56 5958.39 1196.82C5956.96 1178.08 5956.25 1166.7 5956.25 1162.68C5951.97 1135.91 5935.56 1002.05 5907.03 761.1C5907.03 761.1 5905.6 751.73 5902.75 732.989C5849.96 795.904 5822.14 828.7 5819.29 831.377C5789.32 866.181 5752.23 919.056 5708 990.002C5663.77 1059.61 5633.81 1105.79 5618.12 1128.55C5605.27 1144.61 5588.87 1157.33 5568.89 1166.7C5550.35 1176.07 5532.51 1178.75 5515.39 1174.73C5495.42 1170.71 5477.58 1159.34 5461.89 1140.6C5446.19 1121.86 5436.92 1100.44 5434.07 1076.34C5428.36 1036.18 5422.65 957.876 5416.95 841.417C5416.95 840.078 5414.09 819.999 5408.39 781.179C5401.25 790.549 5379.85 815.314 5344.18 855.472C5308.51 895.63 5282.83 927.757 5267.14 951.852C5251.45 977.286 5205.79 1046.89 5130.17 1160.67C5111.63 1188.79 5100.93 1209.53 5098.07 1222.92C5092.36 1237.65 5080.95 1251.03 5063.83 1263.08C5048.14 1273.79 5033.16 1279.14 5018.89 1279.14C4978.94 1276.46 4953.26 1254.38 4941.84 1212.88C4933.28 1187.45 4931.86 1149.3 4937.56 1098.43C4956.11 890.945 4973.23 732.989 4988.93 624.562C4991.78 609.837 4993.21 583.065 4993.21 544.245C4994.63 516.134 5003.19 489.362 5018.89 463.929C5031.73 441.172 5050.28 429.125 5074.53 427.786C5098.79 425.109 5120.19 433.141 5138.73 451.881C5154.43 467.945 5162.99 487.354 5164.42 510.111C5165.84 532.867 5165.13 553.615 5162.27 572.356C5159.42 601.805 5154.43 645.98 5147.29 704.878C5140.16 762.439 5135.17 804.605 5132.31 831.377C5132.31 834.054 5130.17 839.409 5125.89 847.44C5123.04 855.472 5121.61 862.834 5121.61 869.527C5123.04 874.882 5126.61 880.236 5132.31 885.591C5182.25 822.676 5208.64 789.88 5211.5 787.203C5218.63 777.833 5227.9 765.785 5239.32 751.06C5252.16 734.997 5262.15 722.28 5269.28 712.91C5277.84 702.201 5287.83 690.823 5299.24 678.776C5310.65 665.389 5322.07 653.342 5333.48 642.633C5363.44 617.199 5390.55 599.797 5414.81 590.427C5483.29 562.316 5531.09 589.089 5558.19 670.744C5565.33 689.484 5570.32 708.894 5573.17 728.973C5576.03 749.052 5578.17 776.494 5579.59 811.298C5581.02 844.763 5582.45 864.842 5583.87 871.535C5583.87 882.244 5586.01 888.268 5590.29 889.607C5597.43 885.591 5603.85 880.236 5609.56 873.543C5616.69 865.512 5623.11 856.811 5628.82 847.44C5634.52 836.731 5639.52 828.7 5643.8 823.345C5653.78 811.298 5670.19 789.211 5693.02 757.084C5715.85 723.619 5734.39 698.855 5748.66 682.791C5795.74 629.247 5842.11 590.427 5887.77 566.332C5904.89 558.301 5924.86 556.293 5947.69 560.309C5970.52 564.324 5989.07 573.695 6003.33 588.419C6033.29 619.207 6053.27 658.696 6063.26 706.886C6071.82 752.399 6088.22 882.914 6112.48 1098.43C6112.48 1106.46 6117.47 1151.3 6127.46 1232.96Z" fill="white"/>
<path d="M6389.7 628.578C6354.04 660.704 6332.63 696.847 6325.5 737.005C6321.22 758.423 6326.21 775.825 6340.48 789.211C6344.76 793.227 6356.89 805.274 6376.86 825.353C6396.84 844.094 6412.53 858.149 6423.95 867.519C6481.02 915.709 6515.26 969.254 6526.67 1028.15C6535.23 1062.96 6527.38 1102.45 6503.13 1146.62C6480.3 1190.79 6447.49 1222.92 6404.69 1243C6324.79 1280.48 6253.45 1293.87 6190.68 1283.16C6182.11 1281.82 6171.41 1281.15 6158.57 1281.15C6145.73 1281.15 6135.03 1281.15 6126.47 1281.15C6113.63 1279.81 6099.36 1272.45 6083.67 1259.06C6067.98 1245.68 6058.7 1232.96 6055.85 1220.91C6053 1207.53 6056.56 1192.13 6066.55 1174.73C6075.11 1157.33 6085.81 1146.62 6098.65 1142.6C6100.08 1142.6 6123.62 1141.27 6169.27 1138.59C6179.26 1141.27 6190.67 1142.6 6203.52 1142.6C6216.36 1142.6 6227.06 1141.93 6235.62 1140.6C6244.18 1139.26 6256.31 1137.25 6272 1134.57C6287.69 1130.56 6299.11 1127.88 6306.24 1126.54C6327.64 1122.52 6344.76 1113.15 6357.6 1098.43C6371.87 1083.7 6376.15 1068.31 6370.44 1052.25C6363.31 1026.81 6347.62 1004.73 6323.36 985.986C6264.87 941.812 6220.64 896.3 6190.68 849.448C6163.57 805.274 6159.29 750.391 6177.83 684.799C6196.38 627.239 6225.63 580.388 6265.58 544.245C6331.21 484.008 6401.12 462.59 6475.31 479.992C6503.84 486.685 6530.24 504.756 6554.49 534.206C6580.17 562.316 6593.01 589.758 6593.01 616.53C6594.44 640.625 6584.45 659.366 6563.05 672.752C6541.65 684.799 6518.82 685.469 6494.57 674.76C6460.33 660.035 6438.21 645.31 6428.23 630.586C6418.24 614.522 6405.4 613.853 6389.7 628.578Z" fill="white"/>
</mask>
<g mask="url(#mask0_20_24)">
<rect y="-297.389" width="7642.91" height="2025.08" fill="#171919"/>
<rect x="830.752" y="1295.77" width="1004.45" height="778.876" fill="#004BE0"/>
</g>
</g>
<defs>
<clipPath id="clip0_20_24">
<rect width="6593" height="1636" fill="white"/>
</clipPath>
</defs>
</svg>
