<svg width="11" height="12" viewBox="0 0 11 12" fill="none" xmlns="http://www.w3.org/2000/svg">
<g id="mingcute:star-fill" clip-path="url(#clip0_102_276)">
<g id="Group">
<path id="Vector" d="M5.28062 2.14418C5.32748 2.06376 5.39461 1.99704 5.47531 1.95066C5.55601 1.90429 5.64746 1.87988 5.74054 1.87988C5.83362 1.87988 5.92507 1.90429 6.00577 1.95066C6.08647 1.99704 6.1536 2.06376 6.20046 2.14418L7.39071 4.18741L9.70223 4.68821C9.79316 4.70797 9.87731 4.75122 9.94631 4.81364C10.0153 4.87606 10.0667 4.95548 10.0955 5.04398C10.1242 5.13248 10.1293 5.22696 10.1101 5.31801C10.0909 5.40906 10.0482 5.4935 9.98627 5.56291L8.41063 7.32636L8.6491 9.67919C8.65851 9.77183 8.64345 9.86533 8.60542 9.95033C8.5674 10.0353 8.50774 10.1089 8.4324 10.1636C8.35706 10.2184 8.26868 10.2524 8.17609 10.2623C8.08349 10.2722 7.98992 10.2576 7.90471 10.22L5.74054 9.26611L3.57637 10.22C3.49116 10.2576 3.39759 10.2722 3.30499 10.2623C3.2124 10.2524 3.12402 10.2184 3.04868 10.1636C2.97334 10.1089 2.91368 10.0353 2.87566 9.95033C2.83763 9.86533 2.82257 9.77183 2.83198 9.67919L3.07046 7.32636L1.49481 5.56334C1.43273 5.49393 1.38994 5.40946 1.37072 5.31835C1.3515 5.22724 1.35651 5.13269 1.38525 5.04412C1.414 4.95555 1.46548 4.87608 1.53454 4.81363C1.60361 4.75117 1.68785 4.70793 1.77885 4.68821L4.09037 4.18741L5.28062 2.14418Z" fill="#FF842C"/>
</g>
</g>
<defs>
<clipPath id="clip0_102_276">
<rect width="10.2204" height="10.2204" fill="white" transform="translate(0.630371 0.920898)"/>
</clipPath>
</defs>
</svg>
