<svg width="12" height="13" viewBox="0 0 12 13" fill="none" xmlns="http://www.w3.org/2000/svg">
<g id="mingcute:star-fill" clip-path="url(#clip0_109_225)">
<g id="Group">
<path id="Vector" d="M5.5298 1.81273C5.58317 1.72114 5.65963 1.64515 5.75153 1.59233C5.84344 1.53951 5.9476 1.51172 6.0536 1.51172C6.1596 1.51172 6.26375 1.53951 6.35566 1.59233C6.44757 1.64515 6.52403 1.72114 6.5774 1.81273L7.93297 4.13975L10.5655 4.71011C10.6691 4.73261 10.7649 4.78186 10.8435 4.85295C10.9221 4.92405 10.9807 5.0145 11.0134 5.11529C11.0461 5.21608 11.0519 5.32368 11.0301 5.42738C11.0082 5.53108 10.9596 5.62725 10.889 5.70629L9.09454 7.71467L9.36614 10.3943C9.37685 10.4998 9.3597 10.6063 9.31639 10.7031C9.27308 10.7999 9.20514 10.8837 9.11934 10.946C9.03354 11.0083 8.93288 11.0471 8.82742 11.0584C8.72197 11.0696 8.6154 11.053 8.51836 11.0102L6.0536 9.92384L3.58884 11.0102C3.4918 11.053 3.38523 11.0696 3.27977 11.0584C3.17432 11.0471 3.07366 11.0083 2.98786 10.946C2.90206 10.8837 2.83411 10.7999 2.79081 10.7031C2.7475 10.6063 2.73034 10.4998 2.74106 10.3943L3.01266 7.71467L1.21816 5.70678C1.14746 5.62774 1.09874 5.53153 1.07684 5.42777C1.05495 5.32401 1.06066 5.21631 1.0934 5.11545C1.12613 5.01458 1.18476 4.92406 1.26342 4.85294C1.34208 4.78181 1.43802 4.73256 1.54166 4.71011L4.17423 4.13975L5.5298 1.81273Z" fill="#A7A9BE"/>
</g>
</g>
<defs>
<clipPath id="clip0_109_225">
<rect width="11.64" height="11.64" fill="white" transform="translate(0.233643 0.418945)"/>
</clipPath>
</defs>
</svg>
