<svg width="21" height="21" viewBox="0 0 21 21" fill="none" xmlns="http://www.w3.org/2000/svg">
<g id="Frame 5">
<path id="Union" fill-rule="evenodd" clip-rule="evenodd" d="M15.6811 8.70005C15.6811 12.4004 12.6814 15.4001 8.98106 15.4001C5.28072 15.4001 2.28101 12.4004 2.28101 8.70005C2.28101 4.99972 5.28072 2 8.98106 2C12.6814 2 15.6811 4.99972 15.6811 8.70005ZM14.2249 15.0045C12.8034 16.1882 10.9754 16.9001 8.98106 16.9001C4.4523 16.9001 0.781006 13.2288 0.781006 8.70005C0.781006 4.17129 4.4523 0.5 8.98106 0.5C13.5098 0.5 17.1811 4.17129 17.1811 8.70005C17.1811 10.6944 16.4692 12.5224 15.2855 13.9439L20.8653 19.5236L19.8047 20.5843L14.2249 15.0045Z" fill="#171919"/>
</g>
</svg>
