<svg width="24" height="25" viewBox="0 0 24 25" fill="none" xmlns="http://www.w3.org/2000/svg">
<g id="Group">
<path id="Vector" d="M11.5448 16.1296C13.3455 16.1296 14.8054 14.6698 14.8054 12.869C14.8054 11.0682 13.3455 9.6084 11.5448 9.6084C9.74397 9.6084 8.28415 11.0682 8.28415 12.869C8.28415 14.6698 9.74397 16.1296 11.5448 16.1296Z" stroke="#171919" stroke-width="2.44546"/>
<path id="Vector_2" d="M13.4631 2.1652C13.0642 2 12.5578 2 11.5448 2C10.5318 2 10.0253 2 9.62647 2.1652C9.36255 2.27445 9.12276 2.43463 8.92079 2.63661C8.71882 2.83858 8.55863 3.07837 8.44939 3.34228C8.34939 3.58466 8.30918 3.86833 8.29396 4.28025C8.28719 4.57805 8.20484 4.86923 8.05465 5.12646C7.90445 5.38369 7.69134 5.59853 7.43534 5.75079C7.17546 5.89648 6.88282 5.97371 6.5849 5.97523C6.28698 5.97675 5.99356 5.90251 5.73221 5.75948C5.36702 5.56602 5.10291 5.45951 4.84098 5.42473C4.26963 5.34959 3.69183 5.5044 3.23458 5.85513C2.8933 6.11924 2.63898 6.55725 2.13249 7.43435C1.62601 8.31146 1.37169 8.74946 1.31625 9.17878C1.2789 9.46186 1.29769 9.74952 1.37154 10.0253C1.44539 10.3012 1.57285 10.5597 1.74666 10.7863C1.90751 10.9949 2.13249 11.1699 2.48138 11.3895C2.99547 11.7123 3.32588 12.2622 3.32588 12.8687C3.32588 13.4752 2.99547 14.0251 2.48138 14.3468C2.13249 14.5675 1.90643 14.7425 1.74666 14.9511C1.57285 15.1777 1.44539 15.4363 1.37154 15.7121C1.29769 15.9879 1.2789 16.2756 1.31625 16.5586C1.37277 16.9869 1.62601 17.426 2.13141 18.3031C2.63898 19.1802 2.89222 19.6182 3.23458 19.8823C3.46112 20.0561 3.71969 20.1835 3.9955 20.2574C4.27132 20.3312 4.55898 20.35 4.84206 20.3127C5.10291 20.2779 5.36702 20.1714 5.73221 19.9779C5.99356 19.8349 6.28698 19.7607 6.5849 19.7622C6.88282 19.7637 7.17546 19.8409 7.43534 19.9866C7.96029 20.2909 8.27223 20.8507 8.29396 21.4572C8.30918 21.8702 8.34831 22.1528 8.44939 22.3951C8.55863 22.659 8.71882 22.8988 8.92079 23.1008C9.12276 23.3028 9.36255 23.463 9.62647 23.5722C10.0253 23.7374 10.5318 23.7374 11.5448 23.7374C12.5578 23.7374 13.0642 23.7374 13.4631 23.5722C13.727 23.463 13.9668 23.3028 14.1688 23.1008C14.3708 22.8988 14.531 22.659 14.6402 22.3951C14.7402 22.1528 14.7804 21.8702 14.7956 21.4572C14.8174 20.8507 15.1293 20.2899 15.6542 19.9866C15.9141 19.8409 16.2068 19.7637 16.5047 19.7622C16.8026 19.7607 17.096 19.8349 17.3574 19.9779C17.7226 20.1714 17.9867 20.2779 18.2475 20.3127C18.5306 20.35 18.8183 20.3312 19.0941 20.2574C19.3699 20.1835 19.6285 20.0561 19.855 19.8823C20.1974 19.6193 20.4506 19.1802 20.9571 18.3031C21.4636 17.426 21.7179 16.9879 21.7733 16.5586C21.8107 16.2756 21.7919 15.9879 21.718 15.7121C21.6442 15.4363 21.5167 15.1777 21.3429 14.9511C21.1821 14.7425 20.9571 14.5675 20.6082 14.3479C20.3536 14.1932 20.1425 13.9762 19.9948 13.7175C19.847 13.4587 19.7675 13.1666 19.7637 12.8687C19.7637 12.2622 20.0941 11.7123 20.6082 11.3906C20.9571 11.1699 21.1832 10.9949 21.3429 10.7863C21.5167 10.5597 21.6442 10.3012 21.718 10.0253C21.7919 9.74952 21.8107 9.46186 21.7733 9.17878C21.7168 8.75055 21.4636 8.31146 20.9582 7.43435C20.4506 6.55725 20.1974 6.11924 19.855 5.85513C19.6285 5.68133 19.3699 5.55386 19.0941 5.48001C18.8183 5.40616 18.5306 5.38738 18.2475 5.42473C17.9867 5.45951 17.7226 5.56602 17.3563 5.75948C17.0951 5.90232 16.8019 5.97645 16.5041 5.97493C16.2064 5.97341 15.914 5.89628 15.6542 5.75079C15.3982 5.59853 15.1851 5.38369 15.0349 5.12646C14.8847 4.86923 14.8024 4.57805 14.7956 4.28025C14.7804 3.86724 14.7413 3.58466 14.6402 3.34228C14.531 3.07837 14.3708 2.83858 14.1688 2.63661C13.9668 2.43463 13.727 2.27445 13.4631 2.1652Z" stroke="#171919" stroke-width="2.44546"/>
</g>
</svg>
