<svg width="22" height="25" viewBox="0 0 22 25" fill="none" xmlns="http://www.w3.org/2000/svg">
<g id="Vector">
<path d="M6.55396 6.6301C6.55396 6.37338 6.65504 6.12716 6.83497 5.94563C7.0149 5.76409 7.25894 5.66211 7.51341 5.66211H16.4683C16.7227 5.66211 16.9668 5.76409 17.1467 5.94563C17.3266 6.12716 17.4277 6.37338 17.4277 6.6301C17.4277 6.88683 17.3266 7.13304 17.1467 7.31458C16.9668 7.49611 16.7227 7.5981 16.4683 7.5981H7.51341C7.25894 7.5981 7.0149 7.49611 6.83497 7.31458C6.65504 7.13304 6.55396 6.88683 6.55396 6.6301ZM7.51341 9.53409C7.25894 9.53409 7.0149 9.63607 6.83497 9.8176C6.65504 9.99914 6.55396 10.2454 6.55396 10.5021C6.55396 10.7588 6.65504 11.005 6.83497 11.1866C7.0149 11.3681 7.25894 11.4701 7.51341 11.4701H13.9097C14.1642 11.4701 14.4082 11.3681 14.5882 11.1866C14.7681 11.005 14.8692 10.7588 14.8692 10.5021C14.8692 10.2454 14.7681 9.99914 14.5882 9.8176C14.4082 9.63607 14.1642 9.53409 13.9097 9.53409H7.51341Z" fill="#171919"/>
<path fill-rule="evenodd" clip-rule="evenodd" d="M6.87389 0.5C5.26229 0.5 3.7167 1.1459 2.57714 2.29562C1.43757 3.44534 0.797363 5.00468 0.797363 6.63063V19.5372C0.797363 20.8209 1.30279 22.0519 2.20245 22.9596C3.10211 23.8673 4.32231 24.3772 5.59462 24.3772H19.6666C20.2603 24.3772 20.8297 24.1392 21.2496 23.7156C21.6694 23.2921 21.9053 22.7176 21.9053 22.1185V2.75865C21.9053 2.15962 21.6694 1.58512 21.2496 1.16154C20.8297 0.737965 20.2603 0.5 19.6666 0.5H6.87389ZM19.9864 14.6972V2.75865C19.9864 2.67308 19.9527 2.59101 19.8927 2.53049C19.8327 2.46998 19.7514 2.43599 19.6666 2.43599H6.87389C5.77122 2.43599 4.71371 2.87792 3.934 3.66457C3.1543 4.45122 2.71626 5.51814 2.71626 6.63063V15.6652C3.54595 15.0356 4.55639 14.6957 5.59462 14.6972H19.9864ZM19.9864 16.6332H5.59462C4.83123 16.6332 4.09911 16.9392 3.55932 17.4838C3.01952 18.0284 2.71626 18.767 2.71626 19.5372C2.71626 20.3074 3.01952 21.046 3.55932 21.5906C4.09911 22.1352 4.83123 22.4412 5.59462 22.4412H19.6666C19.7514 22.4412 19.8327 22.4072 19.8927 22.3467C19.9527 22.2862 19.9864 22.2041 19.9864 22.1185V16.6332Z" fill="#171919"/>
</g>
</svg>
